<?xml version="1.0" encoding="utf-8"?><!-- Uploaded to: SVG Repo, www.svgrepo.com, Generator: SVG Repo Mixer Tools -->
<svg fill="#000000" width="800px" height="800px" viewBox="0 0 24 24" id="folder-code-2" data-name="Flat Line" xmlns="http://www.w3.org/2000/svg" class="icon flat-line"><path id="secondary" d="M9,9l2,2h8V4a1,1,0,0,0-1-1H6A1,1,0,0,0,5,4V9Z" style="fill: rgb(44, 169, 188); stroke-width: 2;"></path><path id="primary" d="M9,9l2,2h8V4a1,1,0,0,0-1-1H6A1,1,0,0,0,5,4V9Z" style="fill: none; stroke: rgb(0, 0, 0); stroke-linecap: round; stroke-linejoin: round; stroke-width: 2;"></path><polyline id="primary-2" data-name="primary" points="9 21 11 19 9 17" style="fill: none; stroke: rgb(0, 0, 0); stroke-linecap: round; stroke-linejoin: round; stroke-width: 2;"></polyline><polyline id="primary-3" data-name="primary" points="5 17 3 19 5 21" style="fill: none; stroke: rgb(0, 0, 0); stroke-linecap: round; stroke-linejoin: round; stroke-width: 2;"></polyline><path id="primary-4" data-name="primary" d="M3,13V10A1,1,0,0,1,4,9H9l2,2h9a1,1,0,0,1,1,1v8a1,1,0,0,1-1,1H15" style="fill: none; stroke: rgb(0, 0, 0); stroke-linecap: round; stroke-linejoin: round; stroke-width: 2;"></path></svg>